<?xml version="1.0" standalone="no"?>
<!DOCTYPE svg PUBLIC "-//W3C//DTD SVG 20010904//EN"
 "http://www.w3.org/TR/2001/REC-SVG-20010904/DTD/svg10.dtd">
<svg version="1.0" xmlns="http://www.w3.org/2000/svg"
 width="260.000000pt" height="260.000000pt" viewBox="0 0 260.000000 260.000000"
 preserveAspectRatio="xMidYMid meet">
<metadata>
Created by potrace 1.11, written by Peter Selinger 2001-2013
</metadata>
<g transform="translate(0.000000,260.000000) scale(0.100000,-0.100000)"
fill="#000000" stroke="none">
<path d="M1190 2389 c-388 -49 -736 -339 -864 -721 -14 -40 -28 -88 -31 -107
-3 -19 -8 -37 -10 -41 -17 -27 -25 -278 -12 -380 51 -416 360 -780 767 -904
47 -14 102 -28 124 -32 21 -3 48 -8 60 -10 34 -7 236 -6 291 1 43 6 81 13 145
29 8 2 48 16 89 30 218 76 423 242 555 448 l36 57 0 351 c0 326 -1 350 -17
351 -52 3 -761 4 -778 1 -19 -3 -20 -10 -18 -210 1 -114 2 -212 2 -219 1 -8
30 -13 93 -15 l93 -3 -44 -41 c-217 -209 -575 -142 -703 132 -54 116 -51 278
10 402 84 175 276 259 487 211 56 -12 127 -42 165 -69 l25 -18 145 206 c80
113 165 235 190 270 l44 65 -34 28 c-65 55 -269 147 -365 165 -19 3 -30 6 -95
20 -44 9 -283 11 -350 3z"/>
</g>
</svg>
